<svg width="1920" height="942" viewBox="0 0 1920 942" fill="none" xmlns="http://www.w3.org/2000/svg">
<path d="M1285.78 758.652L1476 763.007V942H-444V798.956L-301.778 783.476C-221.015 791.163 -174.795 793.401 -81.9259 774.33C-7.25629 758.697 37.6565 755.205 123.111 758.652C310.912 762.593 414.791 762.766 590.074 748.635C734.842 727.726 810.274 734.891 941.482 758.652C910.061 579.367 878.923 475.666 820.593 290.047L618.519 171.589L600.741 141.54L607.259 138.926L628 164.186L820.593 260.868L802.222 66.6325L702.074 4.35506V0L802.222 51.3897L807.556 0H819.407L814.074 59.2289L830.667 159.831L887.556 117.587L894.074 118.893L834.222 174.638L851.407 278.289L994.815 722.069L1048.74 579.223C1127.56 401.635 1146.02 296.585 1140.59 101.037C1144.33 93.7462 1145.23 88.8689 1144.15 78.3911H1153.04C1160.63 139.605 1163.04 173.432 1166.07 233.431C1230.25 197.576 1266.18 177.177 1329.63 136.313L1347.41 118.893H1352.15L1336.74 135.442L1475.41 108.877V114.103C1417.66 120.064 1389 128.503 1336.74 141.975L1166.07 246.932C1160.44 304.027 1155.48 336.2 1145.33 393.698C1170.58 375.853 1184.56 364.233 1209.33 340.566L1229.5 332.245L1145.33 409.376L1044 758.652C1122.68 764.651 1171.96 766.045 1285.78 758.652Z" fill="#021C27"/>
<g filter="url(#filter0_f_2_1564)">
<path d="M1925 949V741C1352.14 754.876 790.399 799.637 466.482 820.15C308.96 830.126 210.423 820.657 188.937 825.448C123.271 840.091 36.5209 838.296 -45 845.382V949H1925Z" fill="#0B110C"/>
</g>
<defs>
<filter id="filter0_f_2_1564" x="-55" y="731" width="1990" height="228" filterUnits="userSpaceOnUse" color-interpolation-filters="sRGB">
<feFlood flood-opacity="0" result="BackgroundImageFix"/>
<feBlend mode="normal" in="SourceGraphic" in2="BackgroundImageFix" result="shape"/>
<feGaussianBlur stdDeviation="5" result="effect1_foregroundBlur_2_1564"/>
</filter>
</defs>
</svg>
