<svg width="1920" height="1021" viewBox="0 0 1920 1021" fill="none" xmlns="http://www.w3.org/2000/svg">
<path d="M1920 23.3979V1021H980L1034.44 869.977L1058.03 976.331L1072.55 933.79L1082.53 969.95L1098.86 954.351L1173.26 696.265L1183.24 738.098L1285.77 354.514L1313.9 472.212L1325.69 433.925L1352.01 533.189L1383.76 415.49L1415.52 550.915L1522.59 160.24L1578.84 402.728L1589.73 378.621L1603.34 446.688L1673.2 182.929L1687.72 238.233L1759.4 0L1818.38 220.508L1849.23 104.936L1869.19 192.147L1920 23.3979Z" fill="#033249"/>
<path d="M0 23.3979V1021H940L885.56 869.977L861.969 976.331L847.452 933.79L837.471 969.95L821.139 954.351L746.737 696.265L736.757 738.098L634.228 354.514L606.1 472.212L594.305 433.925L567.992 533.189L536.236 415.49L504.479 550.915L397.413 160.24L341.158 402.728L330.27 378.621L316.66 446.688L246.795 182.929L232.278 238.233L160.599 0L101.622 220.508L70.7722 104.936L50.8109 192.147L0 23.3979Z" fill="#021C27" fill-opacity="0.3"/>
</svg>
