<svg width="1920" height="918" viewBox="0 0 1920 918" fill="none" xmlns="http://www.w3.org/2000/svg">
<rect x="228" y="99" width="2" height="2" fill="#D9D9D9"/>
<rect x="895" y="460" width="2" height="2" fill="#D9D9D9"/>
<rect x="640" y="675" width="2" height="2" fill="#D9D9D9"/>
<rect x="537" y="529" width="2" height="2" fill="#D9D9D9"/>
<rect x="962" y="777" width="2" height="2" fill="#D9D9D9"/>
<rect x="1256" y="540" width="2" height="2" fill="#D9D9D9"/>
<rect x="1482" y="416" width="2" height="2" fill="#D9D9D9"/>
<rect x="850" y="206" width="2" height="2" fill="#D9D9D9"/>
<rect x="1101" y="203" width="2" height="2" fill="#D9D9D9"/>
<rect x="1025" y="353" width="2" height="2" fill="#D9D9D9"/>
<rect x="1441" y="51" width="2" height="2" fill="#D9D9D9"/>
<rect x="1598" y="132" width="2" height="2" fill="#D9D9D9"/>
<rect x="1765" y="8" width="2" height="2" fill="#D9D9D9"/>
<rect x="374" y="28" width="2" height="2" fill="#D9D9D9"/>
<rect x="43" y="34" width="2" height="2" fill="#D9D9D9"/>
<rect x="233" y="230" width="2" height="2" fill="#D9D9D9"/>
<rect x="900" y="591" width="2" height="2" fill="#D9D9D9"/>
<rect x="703" y="777" width="2" height="2" fill="#D9D9D9"/>
<rect x="444" y="479" width="2" height="2" fill="#D9D9D9"/>
<rect x="869" y="728" width="2" height="2" fill="#D9D9D9"/>
<rect x="526" y="638" width="2" height="2" fill="#D9D9D9"/>
<rect x="365" y="650" width="2" height="2" fill="#D9D9D9"/>
<rect x="214" y="489" width="2" height="2" fill="#D9D9D9"/>
<rect x="206" y="736" width="2" height="2" fill="#D9D9D9"/>
<rect x="89" y="335" width="2" height="2" fill="#D9D9D9"/>
<rect x="81" y="531" width="2" height="2" fill="#D9D9D9"/>
<rect x="85" y="735" width="2" height="2" fill="#D9D9D9"/>
<rect x="398" y="767" width="2" height="2" fill="#D9D9D9"/>
<rect x="631" y="746" width="2" height="2" fill="#D9D9D9"/>
<rect x="1243" y="755" width="2" height="2" fill="#D9D9D9"/>
<rect x="1317" y="549" width="2" height="2" fill="#D9D9D9"/>
<rect x="1397" y="741" width="2" height="2" fill="#D9D9D9"/>
<rect x="1483" y="537" width="2" height="2" fill="#D9D9D9"/>
<rect x="1536" y="741" width="2" height="2" fill="#D9D9D9"/>
<rect x="1630" y="427" width="2" height="2" fill="#D9D9D9"/>
<rect x="1692" y="728" width="2" height="2" fill="#D9D9D9"/>
<rect x="1777" y="424" width="2" height="2" fill="#D9D9D9"/>
<rect x="1792" y="697" width="2" height="2" fill="#D9D9D9"/>
<rect x="1908" y="339" width="2" height="2" fill="#D9D9D9"/>
<rect x="1908" y="656" width="2" height="2" fill="#D9D9D9"/>
<rect x="1826" y="188" width="2" height="2" fill="#D9D9D9"/>
<rect x="1303" y="493" width="2" height="2" fill="#D9D9D9"/>
<rect x="946" y="244" width="2" height="2" fill="#D9D9D9"/>
<rect x="1196" y="241" width="2" height="2" fill="#D9D9D9"/>
<rect x="834" y="376" width="2" height="2" fill="#D9D9D9"/>
<rect x="577" y="370" width="2" height="2" fill="#D9D9D9"/>
<rect x="623" y="291" width="2" height="2" fill="#D9D9D9"/>
<rect x="623" y="291" width="2" height="2" fill="#D9D9D9"/>
<rect x="660" y="370" width="2" height="2" fill="#D9D9D9"/>
<rect x="683" y="191" width="2" height="2" fill="#D9D9D9"/>
<rect x="1382" y="17" width="2" height="2" fill="#D9D9D9"/>
<rect x="1311" y="211" width="2" height="2" fill="#D9D9D9"/>
<rect x="1528" y="226" width="2" height="2" fill="#D9D9D9"/>
<rect x="1727" y="56" width="2" height="2" fill="#D9D9D9"/>
<rect x="554" y="227" width="2" height="2" fill="#D9D9D9"/>
<rect x="417" y="152" width="2" height="2" fill="#D9D9D9"/>
<rect x="415" y="351" width="2" height="2" fill="#D9D9D9"/>
<rect x="293" y="170" width="2" height="2" fill="#D9D9D9"/>
<rect x="960" y="531" width="2" height="2" fill="#D9D9D9"/>
<rect x="724" y="682" width="2" height="2" fill="#D9D9D9"/>
<rect x="426" y="569" width="2" height="2" fill="#D9D9D9"/>
<rect x="885" y="824" width="2" height="2" fill="#D9D9D9"/>
<rect x="542" y="734" width="2" height="2" fill="#D9D9D9"/>
<rect x="381" y="746" width="2" height="2" fill="#D9D9D9"/>
<rect x="230" y="585" width="2" height="2" fill="#D9D9D9"/>
<rect x="222" y="832" width="2" height="2" fill="#D9D9D9"/>
<rect x="105" y="431" width="2" height="2" fill="#D9D9D9"/>
<rect x="97" y="627" width="2" height="2" fill="#D9D9D9"/>
<rect x="101" y="831" width="2" height="2" fill="#D9D9D9"/>
<rect x="414" y="863" width="2" height="2" fill="#D9D9D9"/>
<rect x="647" y="842" width="2" height="2" fill="#D9D9D9"/>
<rect x="1259" y="851" width="2" height="2" fill="#D9D9D9"/>
<rect x="1333" y="645" width="2" height="2" fill="#D9D9D9"/>
<rect x="1413" y="837" width="2" height="2" fill="#D9D9D9"/>
<rect x="1499" y="633" width="2" height="2" fill="#D9D9D9"/>
<rect x="1552" y="837" width="2" height="2" fill="#D9D9D9"/>
<rect x="1646" y="523" width="2" height="2" fill="#D9D9D9"/>
<rect x="1708" y="824" width="2" height="2" fill="#D9D9D9"/>
<rect x="1793" y="520" width="2" height="2" fill="#D9D9D9"/>
<rect x="1808" y="793" width="2" height="2" fill="#D9D9D9"/>
<rect x="1842" y="284" width="2" height="2" fill="#D9D9D9"/>
<rect x="1238" y="467" width="2" height="2" fill="#D9D9D9"/>
<rect x="196" y="132" width="2" height="2" fill="#D9D9D9"/>
<rect x="863" y="493" width="2" height="2" fill="#D9D9D9"/>
<rect x="629" y="726" width="2" height="2" fill="#D9D9D9"/>
<rect x="527" y="477" width="2" height="2" fill="#D9D9D9"/>
<rect x="952" y="725" width="2" height="2" fill="#D9D9D9"/>
<rect x="1331" y="517" width="2" height="2" fill="#D9D9D9"/>
<rect x="1517" y="387" width="2" height="2" fill="#D9D9D9"/>
<rect x="863" y="255" width="2" height="2" fill="#D9D9D9"/>
<rect x="1113" y="254" width="2" height="2" fill="#D9D9D9"/>
<rect x="985" y="344" width="2" height="2" fill="#D9D9D9"/>
<rect x="1422" y="178" width="2" height="2" fill="#D9D9D9"/>
<rect x="1251" y="243" width="2" height="2" fill="#D9D9D9"/>
<rect x="1557" y="124" width="2" height="2" fill="#D9D9D9"/>
<rect x="1535" y="56" width="2" height="2" fill="#D9D9D9"/>
<rect x="1724" width="2" height="2" fill="#D9D9D9"/>
<rect x="1601" width="2" height="2" fill="#D9D9D9"/>
<rect y="105" width="2" height="2" fill="#D9D9D9"/>
<rect x="183" y="206" width="2" height="2" fill="#D9D9D9"/>
<rect x="281" y="415" width="2" height="2" fill="#D9D9D9"/>
<rect x="244" y="318" width="2" height="2" fill="#D9D9D9"/>
<rect x="231" y="391" width="2" height="2" fill="#D9D9D9"/>
<rect x="850" y="567" width="2" height="2" fill="#D9D9D9"/>
<rect x="652" y="795" width="2" height="2" fill="#D9D9D9"/>
<rect x="482" y="431" width="2" height="2" fill="#D9D9D9"/>
<rect x="907" y="679" width="2" height="2" fill="#D9D9D9"/>
<rect x="1326" y="410" width="2" height="2" fill="#D9D9D9"/>
<rect x="1535" y="316" width="2" height="2" fill="#D9D9D9"/>
<rect x="912" y="297" width="2" height="2" fill="#D9D9D9"/>
<rect x="1162" y="295" width="2" height="2" fill="#D9D9D9"/>
<rect x="935" y="382" width="2" height="2" fill="#D9D9D9"/>
<rect x="1350" y="81" width="2" height="2" fill="#D9D9D9"/>
<rect x="1350" y="206" width="2" height="2" fill="#D9D9D9"/>
<rect x="1485" y="123" width="2" height="2" fill="#D9D9D9"/>
<rect x="1688" y="108" width="2" height="2" fill="#D9D9D9"/>
<rect x="491" y="318" width="2" height="2" fill="#D9D9D9"/>
<rect x="369" y="215" width="2" height="2" fill="#D9D9D9"/>
<rect x="272" y="41" width="2" height="2" fill="#D9D9D9"/>
<rect x="140" y="33" width="2" height="2" fill="#D9D9D9"/>
<rect x="388" y="183" width="2" height="2" transform="rotate(-180 388 183)" fill="#D9D9D9"/>
<rect x="1055" y="544" width="2" height="2" transform="rotate(-180 1055 544)" fill="#D9D9D9"/>
<rect x="800" y="759" width="2" height="2" transform="rotate(-180 800 759)" fill="#D9D9D9"/>
<rect x="457" y="669" width="2" height="2" transform="rotate(-180 457 669)" fill="#D9D9D9"/>
<rect x="296" y="681" width="2" height="2" transform="rotate(-180 296 681)" fill="#D9D9D9"/>
<rect x="145" y="520" width="2" height="2" transform="rotate(-180 145 520)" fill="#D9D9D9"/>
<rect x="137" y="767" width="2" height="2" transform="rotate(-180 137 767)" fill="#D9D9D9"/>
<rect x="20" y="366" width="2" height="2" transform="rotate(-180 20 366)" fill="#D9D9D9"/>
<rect x="12" y="562" width="2" height="2" transform="rotate(-180 12 562)" fill="#D9D9D9"/>
<rect x="16" y="766" width="2" height="2" transform="rotate(-180 16 766)" fill="#D9D9D9"/>
<rect x="329" y="798" width="2" height="2" transform="rotate(-180 329 798)" fill="#D9D9D9"/>
<rect x="562" y="777" width="2" height="2" transform="rotate(-180 562 777)" fill="#D9D9D9"/>
<rect x="1174" y="786" width="2" height="2" transform="rotate(-180 1174 786)" fill="#D9D9D9"/>
<rect x="1248" y="580" width="2" height="2" transform="rotate(-180 1248 580)" fill="#D9D9D9"/>
<rect x="1328" y="772" width="2" height="2" transform="rotate(-180 1328 772)" fill="#D9D9D9"/>
<rect x="1414" y="568" width="2" height="2" transform="rotate(-180 1414 568)" fill="#D9D9D9"/>
<rect x="1467" y="772" width="2" height="2" transform="rotate(-180 1467 772)" fill="#D9D9D9"/>
<rect x="1561" y="458" width="2" height="2" transform="rotate(-180 1561 458)" fill="#D9D9D9"/>
<rect x="1623" y="759" width="2" height="2" transform="rotate(-180 1623 759)" fill="#D9D9D9"/>
<rect x="1708" y="455" width="2" height="2" transform="rotate(-180 1708 455)" fill="#D9D9D9"/>
<rect x="1723" y="728" width="2" height="2" transform="rotate(-180 1723 728)" fill="#D9D9D9"/>
<rect x="1839" y="370" width="2" height="2" transform="rotate(-180 1839 370)" fill="#D9D9D9"/>
<rect x="1839" y="687" width="2" height="2" transform="rotate(-180 1839 687)" fill="#D9D9D9"/>
<rect x="1757" y="219" width="2" height="2" transform="rotate(-180 1757 219)" fill="#D9D9D9"/>
<rect x="697" y="613" width="2" height="2" transform="rotate(-180 697 613)" fill="#D9D9D9"/>
<rect x="1122" y="861" width="2" height="2" transform="rotate(-180 1122 861)" fill="#D9D9D9"/>
<rect x="1416" y="624" width="2" height="2" transform="rotate(180 1416 624)" fill="#D9D9D9"/>
<rect x="1643" y="500" width="2" height="2" transform="rotate(180 1643 500)" fill="#D9D9D9"/>
<rect x="1011" y="290" width="2" height="2" transform="rotate(-180 1011 290)" fill="#D9D9D9"/>
<rect x="1261" y="287" width="2" height="2" transform="rotate(-180 1261 287)" fill="#D9D9D9"/>
<rect x="1185" y="437" width="2" height="2" transform="rotate(-180 1185 437)" fill="#D9D9D9"/>
<rect x="1601" y="135" width="2" height="2" transform="rotate(-180 1601 135)" fill="#D9D9D9"/>
<rect x="1758" y="216" width="2" height="2" transform="rotate(-180 1758 216)" fill="#D9D9D9"/>
<rect x="534" y="112" width="2" height="2" transform="rotate(-180 534 112)" fill="#D9D9D9"/>
<rect x="203" y="118" width="2" height="2" transform="rotate(-180 203 118)" fill="#D9D9D9"/>
<rect x="393" y="314" width="2" height="2" transform="rotate(-180 393 314)" fill="#D9D9D9"/>
<rect x="1060" y="675" width="2" height="2" transform="rotate(-180 1060 675)" fill="#D9D9D9"/>
<rect x="863" y="861" width="2" height="2" transform="rotate(-180 863 861)" fill="#D9D9D9"/>
<rect x="520" y="771" width="2" height="2" transform="rotate(-180 520 771)" fill="#D9D9D9"/>
<rect x="359" y="783" width="2" height="2" transform="rotate(-180 359 783)" fill="#D9D9D9"/>
<rect x="208" y="622" width="2" height="2" transform="rotate(-180 208 622)" fill="#D9D9D9"/>
<rect x="200" y="869" width="2" height="2" transform="rotate(-180 200 869)" fill="#D9D9D9"/>
<rect x="83" y="468" width="2" height="2" transform="rotate(-180 83 468)" fill="#D9D9D9"/>
<rect x="75" y="664" width="2" height="2" transform="rotate(-180 75 664)" fill="#D9D9D9"/>
<rect x="79" y="868" width="2" height="2" transform="rotate(-180 79 868)" fill="#D9D9D9"/>
<rect x="392" y="900" width="2" height="2" transform="rotate(-180 392 900)" fill="#D9D9D9"/>
<rect x="625" y="879" width="2" height="2" transform="rotate(-180 625 879)" fill="#D9D9D9"/>
<rect x="1237" y="888" width="2" height="2" transform="rotate(-180 1237 888)" fill="#D9D9D9"/>
<rect x="1311" y="682" width="2" height="2" transform="rotate(-180 1311 682)" fill="#D9D9D9"/>
<rect x="1391" y="874" width="2" height="2" transform="rotate(-180 1391 874)" fill="#D9D9D9"/>
<rect x="1477" y="670" width="2" height="2" transform="rotate(-180 1477 670)" fill="#D9D9D9"/>
<rect x="1530" y="874" width="2" height="2" transform="rotate(-180 1530 874)" fill="#D9D9D9"/>
<rect x="1624" y="560" width="2" height="2" transform="rotate(-180 1624 560)" fill="#D9D9D9"/>
<rect x="1686" y="861" width="2" height="2" transform="rotate(-180 1686 861)" fill="#D9D9D9"/>
<rect x="1771" y="557" width="2" height="2" transform="rotate(-180 1771 557)" fill="#D9D9D9"/>
<rect x="1786" y="830" width="2" height="2" transform="rotate(-180 1786 830)" fill="#D9D9D9"/>
<rect x="1902" y="472" width="2" height="2" transform="rotate(-180 1902 472)" fill="#D9D9D9"/>
<rect x="1902" y="789" width="2" height="2" transform="rotate(-180 1902 789)" fill="#D9D9D9"/>
<rect x="1820" y="321" width="2" height="2" transform="rotate(-180 1820 321)" fill="#D9D9D9"/>
<rect x="604" y="563" width="2" height="2" transform="rotate(-180 604 563)" fill="#D9D9D9"/>
<rect x="1029" y="811" width="2" height="2" transform="rotate(-180 1029 811)" fill="#D9D9D9"/>
<rect x="1463" y="577" width="2" height="2" transform="rotate(180 1463 577)" fill="#D9D9D9"/>
<rect x="1107" y="328" width="2" height="2" transform="rotate(-180 1107 328)" fill="#D9D9D9"/>
<rect x="1356" y="325" width="2" height="2" transform="rotate(-180 1356 325)" fill="#D9D9D9"/>
<rect x="994" y="460" width="2" height="2" transform="rotate(-180 994 460)" fill="#D9D9D9"/>
<rect x="737" y="453" width="2" height="2" transform="rotate(-180 737 453)" fill="#D9D9D9"/>
<rect x="783" y="375" width="2" height="2" transform="rotate(-180 783 375)" fill="#D9D9D9"/>
<rect x="783" y="375" width="2" height="2" transform="rotate(-180 783 375)" fill="#D9D9D9"/>
<rect x="820" y="453" width="2" height="2" transform="rotate(-180 820 453)" fill="#D9D9D9"/>
<rect x="844" y="274" width="2" height="2" transform="rotate(-180 844 274)" fill="#D9D9D9"/>
<rect x="1543" y="100" width="2" height="2" transform="rotate(-180 1543 100)" fill="#D9D9D9"/>
<rect x="1471" y="295" width="2" height="2" transform="rotate(-180 1471 295)" fill="#D9D9D9"/>
<rect x="1688" y="310" width="2" height="2" transform="rotate(-180 1688 310)" fill="#D9D9D9"/>
<rect x="1887" y="140" width="2" height="2" transform="rotate(-180 1887 140)" fill="#D9D9D9"/>
<rect x="714" y="311" width="2" height="2" transform="rotate(-180 714 311)" fill="#D9D9D9"/>
<rect x="578" y="236" width="2" height="2" transform="rotate(-180 578 236)" fill="#D9D9D9"/>
<rect x="575" y="434" width="2" height="2" transform="rotate(-180 575 434)" fill="#D9D9D9"/>
<rect x="453" y="254" width="2" height="2" transform="rotate(-180 453 254)" fill="#D9D9D9"/>
<rect x="1120" y="615" width="2" height="2" transform="rotate(-180 1120 615)" fill="#D9D9D9"/>
<rect x="885" y="766" width="2" height="2" transform="rotate(-180 885 766)" fill="#D9D9D9"/>
<rect x="542" y="676" width="2" height="2" transform="rotate(-180 542 676)" fill="#D9D9D9"/>
<rect x="381" y="688" width="2" height="2" transform="rotate(-180 381 688)" fill="#D9D9D9"/>
<rect x="230" y="527" width="2" height="2" transform="rotate(-180 230 527)" fill="#D9D9D9"/>
<rect x="222" y="774" width="2" height="2" transform="rotate(-180 222 774)" fill="#D9D9D9"/>
<rect x="105" y="373" width="2" height="2" transform="rotate(-180 105 373)" fill="#D9D9D9"/>
<rect x="97" y="569" width="2" height="2" transform="rotate(-180 97 569)" fill="#D9D9D9"/>
<rect x="101" y="773" width="2" height="2" transform="rotate(-180 101 773)" fill="#D9D9D9"/>
<rect x="414" y="805" width="2" height="2" transform="rotate(-180 414 805)" fill="#D9D9D9"/>
<rect x="647" y="784" width="2" height="2" transform="rotate(-180 647 784)" fill="#D9D9D9"/>
<rect x="1259" y="793" width="2" height="2" transform="rotate(-180 1259 793)" fill="#D9D9D9"/>
<rect x="1333" y="587" width="2" height="2" transform="rotate(-180 1333 587)" fill="#D9D9D9"/>
<rect x="1413" y="779" width="2" height="2" transform="rotate(-180 1413 779)" fill="#D9D9D9"/>
<rect x="1499" y="575" width="2" height="2" transform="rotate(-180 1499 575)" fill="#D9D9D9"/>
<rect x="1552" y="779" width="2" height="2" transform="rotate(-180 1552 779)" fill="#D9D9D9"/>
<rect x="1646" y="465" width="2" height="2" transform="rotate(-180 1646 465)" fill="#D9D9D9"/>
<rect x="1708" y="766" width="2" height="2" transform="rotate(-180 1708 766)" fill="#D9D9D9"/>
<rect x="1793" y="462" width="2" height="2" transform="rotate(-180 1793 462)" fill="#D9D9D9"/>
<rect x="1808" y="735" width="2" height="2" transform="rotate(-180 1808 735)" fill="#D9D9D9"/>
<rect x="1842" y="226" width="2" height="2" transform="rotate(-180 1842 226)" fill="#D9D9D9"/>
<rect x="587" y="652" width="2" height="2" transform="rotate(-180 587 652)" fill="#D9D9D9"/>
<rect x="1045" y="908" width="2" height="2" transform="rotate(-180 1045 908)" fill="#D9D9D9"/>
<rect x="1398" y="550" width="2" height="2" transform="rotate(180 1398 550)" fill="#D9D9D9"/>
<rect x="356" y="216" width="2" height="2" transform="rotate(-180 356 216)" fill="#D9D9D9"/>
<rect x="1023" y="577" width="2" height="2" transform="rotate(-180 1023 577)" fill="#D9D9D9"/>
<rect x="789" y="810" width="2" height="2" transform="rotate(-180 789 810)" fill="#D9D9D9"/>
<rect x="446" y="720" width="2" height="2" transform="rotate(-180 446 720)" fill="#D9D9D9"/>
<rect x="285" y="732" width="2" height="2" transform="rotate(-180 285 732)" fill="#D9D9D9"/>
<rect x="134" y="571" width="2" height="2" transform="rotate(-180 134 571)" fill="#D9D9D9"/>
<rect x="126" y="818" width="2" height="2" transform="rotate(-180 126 818)" fill="#D9D9D9"/>
<rect x="9" y="417" width="2" height="2" transform="rotate(-180 9 417)" fill="#D9D9D9"/>
<rect x="1" y="613" width="2" height="2" transform="rotate(-180 1 613)" fill="#D9D9D9"/>
<rect x="5" y="817" width="2" height="2" transform="rotate(-180 5 817)" fill="#D9D9D9"/>
<rect x="318" y="849" width="2" height="2" transform="rotate(-180 318 849)" fill="#D9D9D9"/>
<rect x="551" y="828" width="2" height="2" transform="rotate(-180 551 828)" fill="#D9D9D9"/>
<rect x="1163" y="837" width="2" height="2" transform="rotate(-180 1163 837)" fill="#D9D9D9"/>
<rect x="1237" y="631" width="2" height="2" transform="rotate(-180 1237 631)" fill="#D9D9D9"/>
<rect x="1317" y="823" width="2" height="2" transform="rotate(-180 1317 823)" fill="#D9D9D9"/>
<rect x="1403" y="619" width="2" height="2" transform="rotate(-180 1403 619)" fill="#D9D9D9"/>
<rect x="1456" y="823" width="2" height="2" transform="rotate(-180 1456 823)" fill="#D9D9D9"/>
<rect x="1550" y="509" width="2" height="2" transform="rotate(-180 1550 509)" fill="#D9D9D9"/>
<rect x="1612" y="810" width="2" height="2" transform="rotate(-180 1612 810)" fill="#D9D9D9"/>
<rect x="1697" y="506" width="2" height="2" transform="rotate(-180 1697 506)" fill="#D9D9D9"/>
<rect x="1712" y="779" width="2" height="2" transform="rotate(-180 1712 779)" fill="#D9D9D9"/>
<rect x="1828" y="421" width="2" height="2" transform="rotate(-180 1828 421)" fill="#D9D9D9"/>
<rect x="1828" y="738" width="2" height="2" transform="rotate(-180 1828 738)" fill="#D9D9D9"/>
<rect x="1746" y="270" width="2" height="2" transform="rotate(-180 1746 270)" fill="#D9D9D9"/>
<rect x="688" y="561" width="2" height="2" transform="rotate(-180 688 561)" fill="#D9D9D9"/>
<rect x="1113" y="809" width="2" height="2" transform="rotate(-180 1113 809)" fill="#D9D9D9"/>
<rect x="1492" y="601" width="2" height="2" transform="rotate(180 1492 601)" fill="#D9D9D9"/>
<rect x="1677" y="471" width="2" height="2" transform="rotate(180 1677 471)" fill="#D9D9D9"/>
<rect x="1023" y="339" width="2" height="2" transform="rotate(-180 1023 339)" fill="#D9D9D9"/>
<rect x="1274" y="338" width="2" height="2" transform="rotate(-180 1274 338)" fill="#D9D9D9"/>
<rect x="1145" y="428" width="2" height="2" transform="rotate(-180 1145 428)" fill="#D9D9D9"/>
<rect x="1582" y="262" width="2" height="2" transform="rotate(-180 1582 262)" fill="#D9D9D9"/>
<rect x="1411" y="326" width="2" height="2" transform="rotate(-180 1411 326)" fill="#D9D9D9"/>
<rect x="1717" y="208" width="2" height="2" transform="rotate(-180 1717 208)" fill="#D9D9D9"/>
<rect x="1695" y="140" width="2" height="2" transform="rotate(-180 1695 140)" fill="#D9D9D9"/>
<rect x="1884" y="84" width="2" height="2" transform="rotate(-180 1884 84)" fill="#D9D9D9"/>
<rect x="1761" y="84" width="2" height="2" transform="rotate(-180 1761 84)" fill="#D9D9D9"/>
<rect x="160" y="189" width="2" height="2" transform="rotate(-180 160 189)" fill="#D9D9D9"/>
<rect x="344" y="290" width="2" height="2" transform="rotate(-180 344 290)" fill="#D9D9D9"/>
<rect x="441" y="499" width="2" height="2" transform="rotate(-180 441 499)" fill="#D9D9D9"/>
<rect x="404" y="401" width="2" height="2" transform="rotate(-180 404 401)" fill="#D9D9D9"/>
<rect x="391" y="475" width="2" height="2" transform="rotate(-180 391 475)" fill="#D9D9D9"/>
<rect x="1011" y="650" width="2" height="2" transform="rotate(-180 1011 650)" fill="#D9D9D9"/>
<rect x="812" y="879" width="2" height="2" transform="rotate(-180 812 879)" fill="#D9D9D9"/>
<rect x="469" y="789" width="2" height="2" transform="rotate(-180 469 789)" fill="#D9D9D9"/>
<rect x="308" y="801" width="2" height="2" transform="rotate(-180 308 801)" fill="#D9D9D9"/>
<rect x="157" y="640" width="2" height="2" transform="rotate(-180 157 640)" fill="#D9D9D9"/>
<rect x="149" y="887" width="2" height="2" transform="rotate(-180 149 887)" fill="#D9D9D9"/>
<rect x="32" y="486" width="2" height="2" transform="rotate(-180 32 486)" fill="#D9D9D9"/>
<rect x="24" y="682" width="2" height="2" transform="rotate(-180 24 682)" fill="#D9D9D9"/>
<rect x="28" y="886" width="2" height="2" transform="rotate(-180 28 886)" fill="#D9D9D9"/>
<rect x="341" y="918" width="2" height="2" transform="rotate(-180 341 918)" fill="#D9D9D9"/>
<rect x="574" y="897" width="2" height="2" transform="rotate(-180 574 897)" fill="#D9D9D9"/>
<rect x="1186" y="906" width="2" height="2" transform="rotate(-180 1186 906)" fill="#D9D9D9"/>
<rect x="1260" y="700" width="2" height="2" transform="rotate(-180 1260 700)" fill="#D9D9D9"/>
<rect x="1340" y="892" width="2" height="2" transform="rotate(-180 1340 892)" fill="#D9D9D9"/>
<rect x="1426" y="688" width="2" height="2" transform="rotate(-180 1426 688)" fill="#D9D9D9"/>
<rect x="1479" y="892" width="2" height="2" transform="rotate(-180 1479 892)" fill="#D9D9D9"/>
<rect x="1573" y="578" width="2" height="2" transform="rotate(-180 1573 578)" fill="#D9D9D9"/>
<rect x="1635" y="879" width="2" height="2" transform="rotate(-180 1635 879)" fill="#D9D9D9"/>
<rect x="1720" y="575" width="2" height="2" transform="rotate(-180 1720 575)" fill="#D9D9D9"/>
<rect x="1735" y="848" width="2" height="2" transform="rotate(-180 1735 848)" fill="#D9D9D9"/>
<rect x="1851" y="490" width="2" height="2" transform="rotate(-180 1851 490)" fill="#D9D9D9"/>
<rect x="1851" y="807" width="2" height="2" transform="rotate(-180 1851 807)" fill="#D9D9D9"/>
<rect x="1769" y="339" width="2" height="2" transform="rotate(-180 1769 339)" fill="#D9D9D9"/>
<rect x="642" y="515" width="2" height="2" transform="rotate(-180 642 515)" fill="#D9D9D9"/>
<rect x="1067" y="763" width="2" height="2" transform="rotate(-180 1067 763)" fill="#D9D9D9"/>
<rect x="1486" y="493" width="2" height="2" transform="rotate(180 1486 493)" fill="#D9D9D9"/>
<rect x="1695" y="399" width="2" height="2" transform="rotate(180 1695 399)" fill="#D9D9D9"/>
<rect x="1072" y="381" width="2" height="2" transform="rotate(-180 1072 381)" fill="#D9D9D9"/>
<rect x="1322" y="379" width="2" height="2" transform="rotate(-180 1322 379)" fill="#D9D9D9"/>
<rect x="1095" y="466" width="2" height="2" transform="rotate(-180 1095 466)" fill="#D9D9D9"/>
<rect x="1510" y="165" width="2" height="2" transform="rotate(-180 1510 165)" fill="#D9D9D9"/>
<rect x="1510" y="290" width="2" height="2" transform="rotate(-180 1510 290)" fill="#D9D9D9"/>
<rect x="1645" y="207" width="2" height="2" transform="rotate(-180 1645 207)" fill="#D9D9D9"/>
<rect x="1848" y="192" width="2" height="2" transform="rotate(-180 1848 192)" fill="#D9D9D9"/>
<rect x="651" y="401" width="2" height="2" transform="rotate(-180 651 401)" fill="#D9D9D9"/>
<rect x="529" y="299" width="2" height="2" transform="rotate(-180 529 299)" fill="#D9D9D9"/>
<rect x="432" y="124" width="2" height="2" transform="rotate(-180 432 124)" fill="#D9D9D9"/>
<rect x="300" y="117" width="2" height="2" transform="rotate(-180 300 117)" fill="#D9D9D9"/>
<g filter="url(#filter0_d_2_1387)">
<path d="M361 100L363.971 108.029L372 111L363.971 113.971L361 122L358.029 113.971L350 111L358.029 108.029L361 100Z" fill="#D9D9D9"/>
</g>
<g filter="url(#filter1_d_2_1387)">
<path d="M1853 42L1855.7 49.2991L1863 52L1855.7 54.7009L1853 62L1850.3 54.7009L1843 52L1850.3 49.2991L1853 42Z" fill="#D9D9D9"/>
</g>
<g filter="url(#filter2_d_2_1387)">
<path d="M935.5 169L937.526 174.474L943 176.5L937.526 178.526L935.5 184L933.474 178.526L928 176.5L933.474 174.474L935.5 169Z" fill="#D9D9D9"/>
</g>
<g filter="url(#filter3_d_2_1387)">
<path d="M32.5 67L34.2556 71.7444L39 73.5L34.2556 75.2556L32.5 80L30.7444 75.2556L26 73.5L30.7444 71.7444L32.5 67Z" fill="#D9D9D9"/>
</g>
<g filter="url(#filter4_d_2_1387)">
<path d="M1637 145L1639.43 151.569L1646 154L1639.43 156.431L1637 163L1634.57 156.431L1628 154L1634.57 151.569L1637 145Z" fill="#D9D9D9"/>
</g>
<path d="M1440.75 102.638C1438.68 97.6985 1441 92.0152 1445.94 89.9443L1648.11 5.1948C1649.68 4.53493 1651.5 5.27605 1652.16 6.85013V6.85013C1652.79 8.35754 1652.14 10.0963 1650.67 10.8179L1453.98 107.591C1448.96 110.057 1442.91 107.79 1440.75 102.638V102.638Z" fill="url(#paint0_linear_2_1387)"/>
<g filter="url(#filter5_d_2_1387)">
<circle cx="1449.17" cy="99.4368" r="9" transform="rotate(-22.7438 1449.17 99.4368)" fill="white"/>
</g>
<defs>
<filter id="filter0_d_2_1387" x="330" y="80" width="62" height="62" filterUnits="userSpaceOnUse" color-interpolation-filters="sRGB">
<feFlood flood-opacity="0" result="BackgroundImageFix"/>
<feColorMatrix in="SourceAlpha" type="matrix" values="0 0 0 0 0 0 0 0 0 0 0 0 0 0 0 0 0 0 127 0" result="hardAlpha"/>
<feOffset/>
<feGaussianBlur stdDeviation="10"/>
<feComposite in2="hardAlpha" operator="out"/>
<feColorMatrix type="matrix" values="0 0 0 0 0.85098 0 0 0 0 0.85098 0 0 0 0 0.85098 0 0 0 1 0"/>
<feBlend mode="normal" in2="BackgroundImageFix" result="effect1_dropShadow_2_1387"/>
<feBlend mode="normal" in="SourceGraphic" in2="effect1_dropShadow_2_1387" result="shape"/>
</filter>
<filter id="filter1_d_2_1387" x="1823" y="22" width="60" height="60" filterUnits="userSpaceOnUse" color-interpolation-filters="sRGB">
<feFlood flood-opacity="0" result="BackgroundImageFix"/>
<feColorMatrix in="SourceAlpha" type="matrix" values="0 0 0 0 0 0 0 0 0 0 0 0 0 0 0 0 0 0 127 0" result="hardAlpha"/>
<feOffset/>
<feGaussianBlur stdDeviation="10"/>
<feComposite in2="hardAlpha" operator="out"/>
<feColorMatrix type="matrix" values="0 0 0 0 0.85098 0 0 0 0 0.85098 0 0 0 0 0.85098 0 0 0 1 0"/>
<feBlend mode="normal" in2="BackgroundImageFix" result="effect1_dropShadow_2_1387"/>
<feBlend mode="normal" in="SourceGraphic" in2="effect1_dropShadow_2_1387" result="shape"/>
</filter>
<filter id="filter2_d_2_1387" x="908" y="149" width="55" height="55" filterUnits="userSpaceOnUse" color-interpolation-filters="sRGB">
<feFlood flood-opacity="0" result="BackgroundImageFix"/>
<feColorMatrix in="SourceAlpha" type="matrix" values="0 0 0 0 0 0 0 0 0 0 0 0 0 0 0 0 0 0 127 0" result="hardAlpha"/>
<feOffset/>
<feGaussianBlur stdDeviation="10"/>
<feComposite in2="hardAlpha" operator="out"/>
<feColorMatrix type="matrix" values="0 0 0 0 0.85098 0 0 0 0 0.85098 0 0 0 0 0.85098 0 0 0 1 0"/>
<feBlend mode="normal" in2="BackgroundImageFix" result="effect1_dropShadow_2_1387"/>
<feBlend mode="normal" in="SourceGraphic" in2="effect1_dropShadow_2_1387" result="shape"/>
</filter>
<filter id="filter3_d_2_1387" x="6" y="47" width="53" height="53" filterUnits="userSpaceOnUse" color-interpolation-filters="sRGB">
<feFlood flood-opacity="0" result="BackgroundImageFix"/>
<feColorMatrix in="SourceAlpha" type="matrix" values="0 0 0 0 0 0 0 0 0 0 0 0 0 0 0 0 0 0 127 0" result="hardAlpha"/>
<feOffset/>
<feGaussianBlur stdDeviation="10"/>
<feComposite in2="hardAlpha" operator="out"/>
<feColorMatrix type="matrix" values="0 0 0 0 0.85098 0 0 0 0 0.85098 0 0 0 0 0.85098 0 0 0 1 0"/>
<feBlend mode="normal" in2="BackgroundImageFix" result="effect1_dropShadow_2_1387"/>
<feBlend mode="normal" in="SourceGraphic" in2="effect1_dropShadow_2_1387" result="shape"/>
</filter>
<filter id="filter4_d_2_1387" x="1608" y="125" width="58" height="58" filterUnits="userSpaceOnUse" color-interpolation-filters="sRGB">
<feFlood flood-opacity="0" result="BackgroundImageFix"/>
<feColorMatrix in="SourceAlpha" type="matrix" values="0 0 0 0 0 0 0 0 0 0 0 0 0 0 0 0 0 0 127 0" result="hardAlpha"/>
<feOffset/>
<feGaussianBlur stdDeviation="10"/>
<feComposite in2="hardAlpha" operator="out"/>
<feColorMatrix type="matrix" values="0 0 0 0 0.85098 0 0 0 0 0.85098 0 0 0 0 0.85098 0 0 0 1 0"/>
<feBlend mode="normal" in2="BackgroundImageFix" result="effect1_dropShadow_2_1387"/>
<feBlend mode="normal" in="SourceGraphic" in2="effect1_dropShadow_2_1387" result="shape"/>
</filter>
<filter id="filter5_d_2_1387" x="1390.16" y="40.4345" width="118.005" height="118.005" filterUnits="userSpaceOnUse" color-interpolation-filters="sRGB">
<feFlood flood-opacity="0" result="BackgroundImageFix"/>
<feColorMatrix in="SourceAlpha" type="matrix" values="0 0 0 0 0 0 0 0 0 0 0 0 0 0 0 0 0 0 127 0" result="hardAlpha"/>
<feOffset/>
<feGaussianBlur stdDeviation="25"/>
<feComposite in2="hardAlpha" operator="out"/>
<feColorMatrix type="matrix" values="0 0 0 0 1 0 0 0 0 1 0 0 0 0 1 0 0 0 1 0"/>
<feBlend mode="normal" in2="BackgroundImageFix" result="effect1_dropShadow_2_1387"/>
<feBlend mode="normal" in="SourceGraphic" in2="effect1_dropShadow_2_1387" result="shape"/>
</filter>
<linearGradient id="paint0_linear_2_1387" x1="1440.87" y1="102.916" x2="1654.83" y2="13.2224" gradientUnits="userSpaceOnUse">
<stop stop-color="white"/>
<stop offset="0.240448" stop-color="#E6E6E6" stop-opacity="0.5"/>
<stop offset="0.462091" stop-color="#D0D0D0" stop-opacity="0.4"/>
<stop offset="0.710119" stop-color="#B7B7B7" stop-opacity="0.3"/>
<stop offset="1" stop-color="#999999" stop-opacity="0"/>
</linearGradient>
</defs>
</svg>
