<svg width="1919" height="1080" viewBox="0 0 1919 1080" fill="none" xmlns="http://www.w3.org/2000/svg">
<g filter="url(#filter0_f_2_1562)">
<path d="M1867.45 777.171L1924 1080H1810.9L1797.85 967.444C1771 951.313 1756.77 940.589 1732.6 919.206C1755.67 931.711 1770.06 938.119 1797.85 948.685C1736.08 584.44 1710.6 373.951 1663 0H1771.75V96.4764L1832.65 83.0769C1802.72 93.6991 1787.87 100.247 1771.75 115.236L1863.1 766.452C1879.27 763.351 1887.57 758.862 1902.25 750.372C1892.02 761.712 1884.97 767.717 1867.45 777.171Z" fill="#0B110C"/>
</g>
<g filter="url(#filter1_f_2_1562)">
<path d="M63.331 292.463V1080H142.117V205.025C152.401 145.086 162.59 114.467 185 62.7135C170.496 83.4146 162.426 91.9327 148.1 103.719V0H63.331V244.824C54.4595 241.284 48.7047 236.518 36.9029 222.513C7.80553 213.732 4.58345 216.74 16.4585 232.764C39.9546 251.665 49.0959 265.69 63.331 292.463Z" fill="#0B110C"/>
</g>
<g filter="url(#filter2_f_2_1562)">
<path d="M270.5 50.8791L197.831 0L204 168.373L197.831 352.314V393.821L188 720.175L197.831 1080H276.617V317.637C286.901 265.413 467.59 161.013 490 115.92C475.496 133.957 296.926 219.1 282.6 229.369L270.5 50.8791Z" fill="#0B110C"/>
</g>
<defs>
<filter id="filter0_f_2_1562" x="1653" y="-10" width="281" height="1100" filterUnits="userSpaceOnUse" color-interpolation-filters="sRGB">
<feFlood flood-opacity="0" result="BackgroundImageFix"/>
<feBlend mode="normal" in="SourceGraphic" in2="BackgroundImageFix" result="shape"/>
<feGaussianBlur stdDeviation="5" result="effect1_foregroundBlur_2_1562"/>
</filter>
<filter id="filter1_f_2_1562" x="0" y="-10" width="195" height="1100" filterUnits="userSpaceOnUse" color-interpolation-filters="sRGB">
<feFlood flood-opacity="0" result="BackgroundImageFix"/>
<feBlend mode="normal" in="SourceGraphic" in2="BackgroundImageFix" result="shape"/>
<feGaussianBlur stdDeviation="5" result="effect1_foregroundBlur_2_1562"/>
</filter>
<filter id="filter2_f_2_1562" x="178" y="-10" width="322" height="1100" filterUnits="userSpaceOnUse" color-interpolation-filters="sRGB">
<feFlood flood-opacity="0" result="BackgroundImageFix"/>
<feBlend mode="normal" in="SourceGraphic" in2="BackgroundImageFix" result="shape"/>
<feGaussianBlur stdDeviation="5" result="effect1_foregroundBlur_2_1562"/>
</filter>
</defs>
</svg>
